# xmcd
#
# Track frame offsets: 
#        182
#        21422
#        32457
#        46497
#        62195
#        81192
#        91460
#        101657
#        111397
#        122700
#        137292
#        155150
#        164587
#        175592
#        186135
#        205400
#        215370
#        228675
#        247317
#        260520
#        272130
#        284222
#        299755
#        311555
#        322587
#        331667
#
# Disc length: 4597 seconds
#
# Revision: 3
# Processed by: cddbd v1.5.2PL0 Copyright (c) Steve Scherf et al.
# Submitted via: ExactAudioCopy v1.3
#
DISCID=9211f31a
DTITLE=Louis Prima - Louis Prima - Capitol Collectors Series
DYEAR=1990
DGENRE=Vocal
TTITLE0=Just A Gigolo - I Ain't Got Nobody (1956)
TTITLE1=Oh Marie (1956)
TTITLE2=Buona Sera (1956)
TTITLE3=Jump, Jive, An' Wail (1956)
TTITLE4=Basin Street Blues - When It's Sleepy Time Down South (1956)
TTITLE5=The Lip (1956)
TTITLE6=Whistle Stop (1957)
TTITLE7=5 Months, 2 Weeks, 2 Days (1956)
TTITLE8=Banana Split For My Baby (1956)
TTITLE9=There'll Be No Next Time (1957)
TTITLE10=When You're Smiling (The Whole World Smiles With You) - The S
TTITLE10=heik Of Arab (1957)
TTITLE11=Baby Won't You Please Come Home (1957)
TTITLE12=I've Got The World On A String (1957)
TTITLE13=Pennies From Heaven (1957)
TTITLE14=Angelina - Zooma Zooma (1957)
TTITLE15=Beep! Beep! (1957)
TTITLE16=Embraceable You - I Got It Bad And That Ain't Good (1957)
TTITLE17=Sing, Sing, Sing (1958)
TTITLE18=That Old Black Magic (1958)
TTITLE19=The Music Goes 'Round And Around (1958)
TTITLE20=Hey Boy, Hey Girl (1959)
TTITLE21=Lazy River (1959)
TTITLE22=I've Got You Under My Skin (1959)
TTITLE23=You're Just In Love (1962)
TTITLE24=Twist All Night (1962)
TTITLE25=St. Louis Blues (1962)
EXTD=
EXTT0=
EXTT1=
EXTT2=
EXTT3=
EXTT4=
EXTT5=
EXTT6=
EXTT7=
EXTT8=
EXTT9=
EXTT10=
EXTT11=
EXTT12=
EXTT13=
EXTT14=
EXTT15=
EXTT16=
EXTT17=
EXTT18=
EXTT19=
EXTT20=
EXTT21=
EXTT22=
EXTT23=
EXTT24=
EXTT25=
PLAYORDER=
